<?xml version="1.0" encoding="UTF-8" standalone="no"?>
<svg
   xmlns:dc="http://purl.org/dc/elements/1.1/"
   xmlns:cc="http://creativecommons.org/ns#"
   xmlns:rdf="http://www.w3.org/1999/02/22-rdf-syntax-ns#"
   xmlns:svg="http://www.w3.org/2000/svg"
   xmlns="http://www.w3.org/2000/svg"
   xmlns:sodipodi="http://sodipodi.sourceforge.net/DTD/sodipodi-0.dtd"
   xmlns:inkscape="http://www.inkscape.org/namespaces/inkscape"
   sodipodi:docname="logo.svg"
   inkscape:version="1.0alpha2 (863a58d, 2019-08-17)"
   id="svg8"
   version="1.1"
   viewBox="0 0 123.825 15.875"
   height="60"
   width="468">
  <defs
     id="defs2" />
  <sodipodi:namedview
     showguides="false"
     units="px"
     inkscape:document-rotation="0"
     inkscape:window-maximized="0"
     inkscape:window-y="23"
     inkscape:window-x="39"
     inkscape:window-height="907"
     inkscape:window-width="1641"
     showborder="true"
     inkscape:pagecheckerboard="false"
     showgrid="true"
     inkscape:current-layer="layer1"
     inkscape:document-units="mm"
     inkscape:cy="196.67425"
     inkscape:cx="423.7096"
     inkscape:zoom="1.5610218"
     inkscape:pageshadow="2"
     inkscape:pageopacity="0.0"
     borderopacity="1.0"
     bordercolor="#666666"
     pagecolor="#ffffff"
     id="base" />
  <metadata
     id="metadata5">
    <rdf:RDF>
      <cc:Work
         rdf:about="">
        <dc:format>image/svg+xml</dc:format>
        <dc:type
           rdf:resource="http://purl.org/dc/dcmitype/StillImage" />
        <dc:title></dc:title>
      </cc:Work>
    </rdf:RDF>
  </metadata>
  <g
     id="layer1"
     inkscape:groupmode="layer"
     inkscape:label="Layer 1">
    <path
       inkscape:connector-curvature="0"
       id="rect4508"
       d="M 19.736629,3.7571036 V 5.432307 7.1075104 8.7827044 10.457908 H 21.41183 V 8.7827044 7.1075104 5.432307 h 1.675201 1.675197 V 3.7571036 H 23.087031 21.41183 Z m 5.025599,1.6752034 v 1.6752034 1.675194 1.6752036 h 1.6752 V 8.7827044 7.1075104 5.432307 Z m 0,5.025601 H 23.087031 21.41183 v 1.675195 h 1.675201 1.675197 z"
       style="fill:#000000;fill-opacity:1;stroke-width:0.033504" />
    <path
       inkscape:connector-curvature="0"
       id="rect4532"
       d="M 28.11263,3.7571036 V 5.432307 15.483509 h 1.675197 v -3.350406 h 3.350398 V 10.457908 H 29.787827 V 5.432307 h 3.350398 V 3.7571036 h -3.350398 z m 5.025595,1.6752034 v 5.025601 h 1.6752 V 5.432307 Z"
       style="fill:#000000;fill-opacity:1;stroke-width:0.033504" />
    <path
       inkscape:connector-curvature="0"
       id="rect4542"
       d="m 36.488627,3.7571036 v 1.6752034 5.025601 h 1.675197 V 5.432307 h 3.350402 V 3.7571036 h -3.350402 z m 5.025599,1.6752034 v 5.025601 h 1.675197 V 5.432307 Z m 0,5.025601 h -3.350402 v 1.675195 h 3.350402 z"
       style="fill:#000000;fill-opacity:1;stroke-width:0.033504" />
    <path
       inkscape:connector-curvature="0"
       id="rect4556"
       d="M 54.915822,0.40670636 V 3.7571036 H 53.240621 V 5.432307 h 1.675201 v 5.025601 h 1.675201 V 5.432307 h 1.675196 V 3.7571036 H 56.591023 V 0.40670636 Z M 56.591023,10.457908 v 1.675195 h 1.675196 v -1.675195 z"
       style="fill:#000000;fill-opacity:1;stroke-width:0.033504" />
    <path
       inkscape:connector-curvature="0"
       id="rect4564"
       d="m 59.94142,3.7571036 v 6.7008044 h 1.6752 V 3.7571036 Z m 1.6752,6.7008044 v 1.675195 h 4.89158 0.134021 V 3.7571036 h -1.6752 v 6.7008044 z"
       style="fill:#000000;fill-opacity:1;stroke-width:0.033504" />
    <path
       inkscape:connector-curvature="0"
       id="rect4570"
       d="m 68.317418,3.7571036 v 1.6752034 6.700796 h 1.6752 V 5.432307 h 3.350397 V 3.7571036 h -3.350397 z m 5.025597,1.6752034 v 6.700796 h 1.675204 V 5.432307 Z"
       style="fill:#000000;fill-opacity:1;stroke-width:0.033504" />
    <path
       inkscape:connector-curvature="0"
       id="rect4576"
       d="M 78.368616,0.40670636 V 2.0819097 h 1.6752 V 0.40670636 Z M 76.69342,3.7571036 V 5.432307 h 1.675196 v 6.700796 h 1.6752 V 5.432307 3.7571036 h -1.6752 z"
       style="fill:#000000;fill-opacity:1;stroke-width:0.033504" />
    <path
       inkscape:connector-curvature="0"
       id="rect4582"
       d="M 83.394213,3.7571036 V 5.432307 h 5.025601 V 3.7571036 Z m 0,1.6752034 h -1.675197 v 1.6752034 h 1.675197 z m 0,1.6752034 v 1.675194 h 3.350405 v -1.675194 z m 3.350405,1.675194 v 1.6752036 h 1.675196 V 8.7827044 Z m 0,1.6752036 h -5.025602 v 1.675195 h 5.025602 z"
       style="fill:#000000;fill-opacity:1;stroke-width:0.033504" />
    <path
       inkscape:connector-curvature="0"
       id="rect4594"
       d="M 91.770215,0.40670636 V 3.7571036 H 90.095014 V 5.432307 h 1.675201 v 5.025601 H 93.44541 V 5.432307 h 1.675205 V 3.7571036 H 93.44541 V 0.40670636 Z M 93.44541,10.457908 v 1.675195 h 1.675205 v -1.675195 z"
       style="fill:#000000;fill-opacity:1;stroke-width:0.033504" />
    <path
       inkscape:connector-curvature="0"
       id="rect4600"
       d="M 98.471011,3.7571036 V 5.432307 h 3.350399 V 3.7571036 Z m 3.350399,1.6752034 v 1.6752034 h -3.350399 v 1.675194 h 3.350399 v 1.6752036 h -3.350399 v 1.675195 h 3.350399 1.6752 V 10.457908 5.432307 Z m -3.350399,5.025601 V 8.7827044 h -1.675195 v 1.6752036 z"
       style="fill:#000000;fill-opacity:1;stroke-width:0.033504" />
    <path
       inkscape:connector-curvature="0"
       id="rect4664"
       d="m 44.864625,3.7571036 v 8.3759994 h 1.6752 V 5.432307 h 3.350399 V 3.7571036 h -3.350399 z m 5.025599,1.6752034 v 1.6752034 h 1.6752 V 5.432307 Z"
       style="fill:#000000;fill-opacity:1;stroke-width:0.033504" />
  </g>
</svg>
